<svg xmlns="http://www.w3.org/2000/svg" version="1.1" width="164" height="100%" viewBox="0 0 1000 600"><rect width="1000" height="600" x="0" y="0" fill="none"/><g><circle r="166.66666666666666" cx="316.7590891520182" cy="338.9813343577708" fill="#070707" transform="matrix(0.8328199372538494,0,0,0.8328199372538494,0,17.689559909427018)"/><path d="M343.85969712537064 369.05940725552693L343.85969712537064 263.98135629899286L363.4588494083225 263.98135629899286L363.4588494083225 368.7703342130055Q363.4588494083225 390.01720283832947 350.7107282331282 401.984826798716Q337.9626070579338 413.9813580633547 316.71573843260984 413.9813580633547L316.71573843260984 413.9813580633547Q294.6594652882259 413.9813580633547 282.37386098106583 402.7075094050196Q270.05934936965355 391.43366074668444 270.05934936965355 371.111825857429L270.05934936965355 371.111825857429L289.57177973984903 371.111825857429Q289.57177973984903 383.80213242411907 296.5384400646151 390.9133292701459Q303.5051003893812 398.0245261161727 316.71573843260984 398.0245261161727L316.71573843260984 398.0245261161727Q328.7989916100049 398.0245261161727 336.28598341130953 390.42190509785945Q343.74406790836207 382.7903767752941 343.85969712537064 369.05940725552693L343.85969712537064 369.05940725552693Z " fill="#ffffff" transform="matrix(0.8328199372538494,0,0,0.8328199372538494,0,17.689559909427018)"/><path d="M624.2817216958423 354.0589243886084L624.2817216958423 354.0589243886084Q624.2817216958423 347.6594416289992 619.4578691611368 344.12033373921537Q614.6582570914301 340.6054663144301 602.6834673821613 338.035977024587Q590.7086776728927 335.4907281997424 583.6789428233221 331.90313937996154Q576.6492079737513 328.3155505601806 573.2797833389571 323.37049570048265Q569.910358704163 318.4254408407847 569.910358704163 311.6138701762007L569.910358704163 311.6138701762007Q569.910358704163 300.29357302189203 579.5095828435767 292.4396623623717Q589.0845665179919 284.6099921678499 603.9924524920814 284.6099921678499L603.9924524920814 284.6099921678499Q619.6760333461236 284.6099921678499 629.4449407405269 292.7063074773554Q639.1896076699318 300.8026227868609 639.1896076699318 313.40766458609113L639.1896076699318 313.40766458609113L623.3363435609001 313.40766458609113Q623.3363435609001 306.9354604314864 617.8579984712346 302.2570506867721Q612.3554129165707 297.55440047705935 603.9924524920814 297.55440047705935L603.9924524920814 297.55440047705935Q595.3870874176071 297.55440047705935 590.538994417903 301.3116725518299Q585.6666609532007 305.0689446266004 585.6666609532007 311.10482041123174L585.6666609532007 311.10482041123174Q585.6666609532007 316.82557015088236 590.1996279079237 319.7101854857062Q594.7083543976485 322.61904128552857 606.5134608519274 325.2612519703672Q618.3185673062064 327.90346265520583 625.6391877357594 331.56377286998224Q632.9840486303108 335.2240830847587 636.5231565200947 340.3873021294434Q640.03802394488 345.52628070912954 640.03802394488 352.9438629986765L640.03802394488 352.9438629986765Q640.03802394488 365.3065001479215 630.1721546904826 372.7725633674655Q620.2820449710866 380.21438612201104 604.5015022570503 380.21438612201104L604.5015022570503 380.21438612201104Q593.4236097527269 380.21438612201104 584.9152065382466 376.3116712572494Q576.3825628587676 372.3847159274892 571.5829507890608 365.3549810779185Q566.7590982543554 358.32524622834785 566.7590982543554 350.13196905884826L566.7590982543554 350.13196905884826L582.515400503393 350.13196905884826Q582.9517288733664 358.05860111336415 588.8664023330052 362.7127703930799Q594.8053162576425 367.3426992077971 604.5015022570503 367.3426992077971L604.5015022570503 367.3426992077971Q613.4704743065026 367.3426992077971 618.8760980011725 363.7308699230177Q624.2817216958423 360.1190406382383 624.2817216958423 354.0589243886084ZM738.478552303868 331.9758607749571L738.478552303868 333.4302886748683Q738.478552303868 354.4952527585818 728.8550876994557 367.3426992077971Q719.2073826300449 380.21438612201104 702.7723473610487 380.21438612201104L702.7723473610487 380.21438612201104Q685.9737051170746 380.21438612201104 676.3502405126623 369.5728219876609L676.3502405126623 369.5728219876609L676.3502405126623 413.98135386494874L660.5939382636245 413.98135386494874L660.5939382636245 286.3068247177463L674.9927744727453 286.3068247177463L675.7442288876994 296.5363009471215Q685.3919339571102 284.6099921678499 702.505702246065 284.6099921678499L702.505702246065 284.6099921678499Q719.1346612350493 284.6099921678499 728.8066067694587 297.1423125720845Q738.478552303868 309.6503925113206 738.478552303868 331.9758607749571L738.478552303868 331.9758607749571ZM722.7222500548302 331.63649426497784L722.7222500548302 331.63649426497784Q722.7222500548302 316.04987527092976 716.0561221802374 307.008181826482Q709.414234770643 297.9907288470327 697.8272925013506 297.9907288470327L697.8272925013506 297.9907288470327Q683.5011776872255 297.9907288470327 676.3502405126623 310.6927325062569L676.3502405126623 310.6927325062569L676.3502405126623 354.737657408567Q683.42845629223 367.3426992077971 697.9969757563402 367.3426992077971L697.9969757563402 367.3426992077971Q709.3415133756474 367.3426992077971 716.0318817152388 358.3737271583449Q722.7222500548302 349.3805146438942 722.7222500548302 331.63649426497784ZM803.0793915249225 285.79777495277733L803.0793915249225 300.4632562768817Q799.4918027051416 299.8572446519187 795.3224427253963 299.8572446519187L795.3224427253963 299.8572446519187Q779.8085451263438 299.8572446519187 774.2817191066813 313.06829807611183L774.2817191066813 313.06829807611183L774.2817191066813 378.51755357211465L758.5011763926451 378.51755357211465L758.5011763926451 286.3068247177463L773.8453907367079 286.3068247177463L774.1120358516916 296.97262931709486Q781.8447441862194 284.6099921678499 796.0981376053489 284.6099921678499L796.0981376053489 284.6099921678499Q800.6795854900691 284.6099921678499 803.0793915249225 285.79777495277733L803.0793915249225 285.79777495277733ZM811.684756599397 332.67883425991414L811.684756599397 331.56377286998224Q811.684756599397 318.01335293580985 817.0176588990713 307.17786508147157Q822.3263207337471 296.36661769213185 831.8285830131667 290.4761846974916Q841.3308452925863 284.6099921678499 853.5237991868418 284.6099921678499L853.5237991868418 284.6099921678499Q872.3586404906914 284.6099921678499 883.9940636899809 297.6513623370534Q895.6294868892702 310.6927325062569 895.6294868892702 332.3394677499349L895.6294868892702 332.3394677499349L895.6294868892702 333.4302886748683Q895.6294868892702 346.90798721404514 890.4662678445856 357.5980322783923Q885.3030487999009 368.28807734273937 875.7280651254856 374.2512317323752Q866.1288409860719 380.21438612201104 853.6934824418314 380.21438612201104L853.6934824418314 380.21438612201104Q834.9556029979757 380.21438612201104 823.3201797986864 367.1730159528075Q811.684756599397 354.1558862486025 811.684756599397 332.67883425991414L811.684756599397 332.67883425991414ZM827.5380207084287 333.4302886748683L827.5380207084287 333.4302886748683Q827.5380207084287 348.77450301893117 834.640476952995 358.05860111336415Q841.7671736625598 367.3426992077971 853.6934824418314 367.3426992077971L853.6934824418314 367.3426992077971Q865.7167530810971 367.3426992077971 872.7949688606648 357.9373987883715Q879.8489441752339 348.5078579039474 879.8489441752339 331.56377286998224L879.8489441752339 331.56377286998224Q879.8489441752339 316.389241780909 872.6495260706737 306.9839413614834Q865.4501079661134 297.55440047705935 853.5237991868418 297.55440047705935L853.5237991868418 297.55440047705935Q841.8398950575553 297.55440047705935 834.688957882992 306.8384985714923Q827.5380207084287 316.1468371309238 827.5380207084287 333.4302886748683ZM972.6656846545653 378.51755357211465L972.326318144586 369.40313873267127Q963.1149414451487 380.21438612201104 945.2981996712368 380.21438612201104L945.2981996712368 380.21438612201104Q930.5599969521369 380.21438612201104 922.8515290826077 371.6575019775336Q915.1430612130785 363.1006178330562 915.0460993530844 346.30197558908213L915.0460993530844 346.30197558908213L915.0460993530844 286.3068247177463L930.8266420671206 286.3068247177463L930.8266420671206 345.88988768410735Q930.8266420671206 366.83364944282823 947.8676889610798 366.83364944282823L947.8676889610798 366.83364944282823Q965.9268353849769 366.83364944282823 971.8899897746127 353.38019136864983L971.8899897746127 353.38019136864983L971.8899897746127 286.3068247177463L987.670532488649 286.3068247177463L987.670532488649 378.51755357211465L972.6656846545653 378.51755357211465ZM1017.2438997868428 263.98135645410974L1033.0002020358806 263.98135645410974L1033.0002020358806 286.3068247177463L1050.2109321848293 286.3068247177463L1050.2109321848293 298.4997786120016L1033.0002020358806 298.4997786120016L1033.0002020358806 355.6830355435092Q1033.0002020358806 361.20986156317167 1035.30304621074 363.99751503800144Q1037.6058903855992 366.76092804783264 1043.1327164052618 366.76092804783264L1043.1327164052618 366.76092804783264Q1045.8718889500944 366.76092804783264 1050.6472605548029 365.74282851789485L1050.6472605548029 365.74282851789485L1050.6472605548029 378.51755357211465Q1044.4174610501832 380.21438612201104 1038.5270280555428 380.21438612201104L1038.5270280555428 380.21438612201104Q1027.982425781187 380.21438612201104 1022.6010425515155 373.8391438274004Q1017.2438997868428 367.4396610677912 1017.2438997868428 355.6830355435092L1017.2438997868428 355.6830355435092L1017.2438997868428 298.4997786120016L1000.4452575428687 298.4997786120016L1000.4452575428687 286.3068247177463L1017.2438997868428 286.3068247177463L1017.2438997868428 263.98135645410974Z " fill="#000000" transform="matrix(0.8328199372538494,0,0,0.8328199372538494,0,17.689559909427018)"/></g></svg>